<svg width="300" height="280" viewBox="0 0 300 280" xmlns="http://www.w3.org/2000/svg">
  <defs>
    <linearGradient id="grad3" x1="0%" y1="0%" x2="100%" y2="100%">
      <stop offset="0%" style="stop-color:#1a1b27;stop-opacity:1" />
      <stop offset="100%" style="stop-color:#16213e;stop-opacity:1" />
    </linearGradient>
  </defs>
  
  <style>
    .card {
      fill: url(#grad3);
      stroke: #70a5fd;
      stroke-width: 1;
      rx: 4.5;
    }
    .title {
      font: 600 18px 'Segoe UI', Ubuntu, Sans-Serif;
      fill: #70a5fd;
    }
    .lang-name {
      font: 400 12px 'Segoe UI', Ubuntu, Sans-Serif;
      fill: #a9b1d6;
    }
    .lang-percent {
      font: 600 12px 'Segoe UI', Ubuntu, Sans-Serif;
      fill: #bb9af7;
    }
  </style>
  
  <rect class="card" x="0.5" y="0.5" width="299" height="279" />
  
  <g transform="translate(25, 35)">
    <text x="0" y="0" class="title">💻 Top Languages</text>
  </g>
  
  
    <g transform="translate(25, 60)">
      <circle cx="0" cy="-6" r="5" fill="#3572A5" />
      <text x="15" y="0" class="lang-name">Python</text>
      <text x="240" y="0" class="lang-percent" text-anchor="end">40.0%</text>
    </g>
    <g transform="translate(25, 68)">
      <rect width="88" height="4" rx="2" fill="#3572A5" opacity="0.8" />
      <rect width="250" height="4" rx="2" fill="#ffffff" opacity="0.1" />
    </g>
    <g transform="translate(25, 95)">
      <circle cx="0" cy="-6" r="5" fill="#e34c26" />
      <text x="15" y="0" class="lang-name">HTML</text>
      <text x="240" y="0" class="lang-percent" text-anchor="end">26.7%</text>
    </g>
    <g transform="translate(25, 103)">
      <rect width="58.74" height="4" rx="2" fill="#e34c26" opacity="0.8" />
      <rect width="250" height="4" rx="2" fill="#ffffff" opacity="0.1" />
    </g>
    <g transform="translate(25, 130)">
      <circle cx="0" cy="-6" r="5" fill="#858585" />
      <text x="15" y="0" class="lang-name">HCL</text>
      <text x="240" y="0" class="lang-percent" text-anchor="end">13.3%</text>
    </g>
    <g transform="translate(25, 138)">
      <rect width="29.26" height="4" rx="2" fill="#858585" opacity="0.8" />
      <rect width="250" height="4" rx="2" fill="#ffffff" opacity="0.1" />
    </g>
    <g transform="translate(25, 165)">
      <circle cx="0" cy="-6" r="5" fill="#f1e05a" />
      <text x="15" y="0" class="lang-name">JavaScript</text>
      <text x="240" y="0" class="lang-percent" text-anchor="end">6.7%</text>
    </g>
    <g transform="translate(25, 173)">
      <rect width="14.74" height="4" rx="2" fill="#f1e05a" opacity="0.8" />
      <rect width="250" height="4" rx="2" fill="#ffffff" opacity="0.1" />
    </g>
    <g transform="translate(25, 200)">
      <circle cx="0" cy="-6" r="5" fill="#b07219" />
      <text x="15" y="0" class="lang-name">Java</text>
      <text x="240" y="0" class="lang-percent" text-anchor="end">6.7%</text>
    </g>
    <g transform="translate(25, 208)">
      <rect width="14.74" height="4" rx="2" fill="#b07219" opacity="0.8" />
      <rect width="250" height="4" rx="2" fill="#ffffff" opacity="0.1" />
    </g>
    <g transform="translate(25, 235)">
      <circle cx="0" cy="-6" r="5" fill="#41b883" />
      <text x="15" y="0" class="lang-name">Vue</text>
      <text x="240" y="0" class="lang-percent" text-anchor="end">6.7%</text>
    </g>
    <g transform="translate(25, 243)">
      <rect width="14.74" height="4" rx="2" fill="#41b883" opacity="0.8" />
      <rect width="250" height="4" rx="2" fill="#ffffff" opacity="0.1" />
    </g>
  
  <g transform="translate(275, 270)">
    <text x="0" y="0" class="lang-name" text-anchor="end">@rarikmilkrai</text>
  </g>
</svg>